<?xml version="1.0" encoding="utf-8"?>
<!-- Generator: Adobe Illustrator 16.0.3, SVG Export Plug-In . SVG Version: 6.00 Build 0)  -->
<!DOCTYPE svg PUBLIC "-//W3C//DTD SVG 1.1//EN" "http://www.w3.org/Graphics/SVG/1.1/DTD/svg11.dtd">
<svg version="1.1" id="Capa_1" xmlns="http://www.w3.org/2000/svg" xmlns:xlink="http://www.w3.org/1999/xlink" x="0px" y="0px"
	 width="590.981px" height="573.498px" viewBox="36.07 6.021 590.981 573.498" enable-background="new 36.07 6.021 590.981 573.498"
	 xml:space="preserve">
<g>
	<g>
		<path fill="#F81D28" d="M548.954,8.168c-13.401-5.083-28.652-0.924-37.895,10.167L321.591,245.238
			c-8.318,10.164-10.166,24.492-4.621,36.506c5.545,12.015,17.56,19.872,30.962,19.872l155.271,0.461v39.743
			c0,18.944,15.25,34.196,34.197,34.196s34.197-15.252,34.197-34.196v-40.204h21.257l0,0c18.947,0,34.197-15.251,34.197-34.201
			c0-18.944-15.25-34.196-34.197-34.196h-21.72V40.055C571.597,25.729,562.817,13.252,548.954,8.168z M503.203,233.219h-82.256
			l82.256-98.892V233.219z"/>
		<path fill="#F81D28" d="M48.017,313.629c-11.091,9.242-14.788,24.494-9.705,37.895c5.083,13.4,17.561,22.182,31.886,22.182l0,0
			l205.181-0.923c18.946,0,34.197-15.252,34.197-34.2c0-18.945-15.251-34.197-34.197-34.197l0,0l-112.295,0.464
			c34.197-29.576,70.705-61.926,83.645-74.863c42.514-43.902,48.059-81.333,48.059-108.598c0-17.099-6.469-43.439-24.03-66.546
			c-14.788-19.409-42.977-42.977-91.037-44.825C84.062,6.32,52.175,77.949,50.79,80.722l0,0c-1.848,4.158-2.773,8.78-2.773,13.4
			c0,18.947,15.25,34.197,34.197,34.197c14.325,0,26.34-8.78,31.886-21.257c3.697-6.47,20.333-30.5,62.848-29.113
			c46.674,1.848,49.447,42.977,49.447,43.439c0,15.249-2.312,33.735-29.113,60.999C177.41,202.72,82.676,284.054,48.017,313.629z"/>
	</g>
</g>
<g>
	<path fill="#F81D28" d="M583.482,411.14H80.695c-23.535,0-42.79,19.042-42.79,42.788v82.803c0,23.532,19.042,42.788,42.79,42.788
		h502.787c23.533,0,42.791-19.042,42.791-42.788v-82.803C626.273,430.396,607.23,411.14,583.482,411.14z"/>
	<path fill="#FFFFFF" d="M468.589,539.511l-4.066-14.762h-30.595l-4.064,14.762h-24.39l22.465-73.172
		c3.208-10.699,12.194-15.833,21.182-15.833c8.986,0,17.972,5.134,21.18,15.833l22.466,73.172H468.589z"/>
	<path fill="#FFFFFF" d="M362.257,539.511l-8.131-16.475c-2.996-5.992-6.419-8.13-14.121-8.13h-4.28l-0.213,24.39h-23.535v-86.863
		h36.587c20.537,0,36.372,9.627,36.372,28.881c0,11.555-6.419,20.969-16.689,24.179c4.278,2.782,7.273,7.917,11.125,15.832
		l8.988,18.399h-26.103V539.511z"/>
	<ellipse fill="#FFFFFF" cx="241.587" cy="496.078" rx="46" ry="45.358"/>
	<path fill="#F81D28" d="M348.776,474.254H335.94l-0.215,19.47h12.839c7.059,0,11.767-3.851,11.767-10.055
		C360.331,477.25,355.41,474.254,348.776,474.254z"/>
	<ellipse fill="#F81D28" cx="241.587" cy="496.079" rx="21.395" ry="22.894"/>
	<path fill="#F81D28" d="M449.548,471.902c-0.43,0-0.856,0.428-1.069,1.283l-8.346,30.383h18.616l-8.347-30.383
		C450.191,472.33,449.976,471.902,449.548,471.902z"/>
	<polygon fill="#FFFFFF" points="171.197,539.511 147.448,539.511 147.448,506.99 113.216,506.99 113.216,539.511 89.468,539.511 
		89.468,452.433 113.216,452.433 113.216,485.167 147.448,485.167 147.448,452.433 171.197,452.433 	"/>
	<path fill="#FFFFFF" d="M545.399,541.436c-16.476,0-29.312-6.847-35.304-19.684l19.898-9.843c2.354,5.35,7.274,7.705,15.405,7.705
		c6.418,0,11.124-1.928,11.124-5.992c0-5.135-5.136-5.99-13.052-7.06c-13.05-1.928-32.091-7.063-32.091-27.813
		c0-16.047,14.335-28.243,33.591-28.243c15.189,0,28.026,6.847,34.019,19.684l-19.898,9.842c-2.354-4.279-7.062-7.702-15.19-7.702
		c-5.776,0-8.772,1.712-8.772,5.35c0,4.92,5.776,6.417,14.12,7.702c12.839,1.925,31.024,6.847,31.024,27.813
		C580.273,529.242,564.654,541.436,545.399,541.436z"/>
</g>
</svg>
