<?xml version="1.0" encoding="UTF-8" standalone="no"?>
<!-- Created with Inkscape (http://www.inkscape.org/) -->

<svg
   width="190.94992mm"
   height="95.139832mm"
   viewBox="0 0 190.94992 95.139832"
   version="1.1"
   id="svg1"
   inkscape:version="1.4 (86a8ad7, 2024-10-11)"
   sodipodi:docname="13Teleseries 2025.svg"
   xmlns:inkscape="http://www.inkscape.org/namespaces/inkscape"
   xmlns:sodipodi="http://sodipodi.sourceforge.net/DTD/sodipodi-0.dtd"
   xmlns="http://www.w3.org/2000/svg"
   xmlns:svg="http://www.w3.org/2000/svg">
  <sodipodi:namedview
     id="namedview1"
     pagecolor="#ffffff"
     bordercolor="#000000"
     borderopacity="0.25"
     inkscape:showpageshadow="2"
     inkscape:pageopacity="0.0"
     inkscape:pagecheckerboard="0"
     inkscape:deskcolor="#d1d1d1"
     inkscape:document-units="mm"
     inkscape:zoom="0.73851712"
     inkscape:cx="325.65257"
     inkscape:cy="149.62416"
     inkscape:window-width="1920"
     inkscape:window-height="1009"
     inkscape:window-x="-8"
     inkscape:window-y="-8"
     inkscape:window-maximized="1"
     inkscape:current-layer="layer1" />
  <defs
     id="defs1" />
  <g
     inkscape:label="Capa 1"
     inkscape:groupmode="layer"
     id="layer1"
     transform="translate(-19.049957,-109.00823)">
    <g
       id="text8-1-3-7-8-8-9"
       style="font-weight:900;font-size:32.7769px;line-height:0.93;font-family:Mangueira;-inkscape-font-specification:'Mangueira Heavy';letter-spacing:-0.443811px;fill:#7775c5;stroke-width:3.76158;stroke-linecap:square;stroke-miterlimit:5;paint-order:stroke markers fill"
       aria-label="Tele&#10;series">
      <path
         style="stroke-width:3.76162"
         d="m 122.57413,146.76373 h 7.04703 v -16.0279 h 5.50652 v -6.55538 h -18.06007 v 6.55538 h 5.50652 z m 28.33428,-10.09528 c 0,-3.67102 -2.85159,-7.27647 -8.39088,-7.27647 -5.37542,0 -9.24309,3.37602 -9.24309,9.04642 0,5.44097 3.90045,8.84976 9.66919,8.84976 2.94992,0 5.04764,-0.4261 6.71926,-1.34385 v -4.6871 h -0.39332 c -1.57329,0.55721 -3.01548,0.81943 -5.30986,0.81943 -1.63885,0 -3.70379,-0.19667 -4.42488,-1.99939 h 10.68527 c 0.5572,-1.08164 0.68831,-2.22883 0.68831,-3.4088 z m -5.50652,-0.4261 h -5.86706 c 0.52443,-1.57329 1.67162,-2.09772 3.08103,-2.09772 1.57329,0 2.75326,1.01608 2.78603,2.06494 z m 7.29154,10.52138 h 6.55538 v -23.07494 h -6.55538 z m 26.00715,-10.09528 c 0,-3.67102 -2.85159,-7.27647 -8.39089,-7.27647 -5.37541,0 -9.24308,3.37602 -9.24308,9.04642 0,5.44097 3.90045,8.84976 9.66918,8.84976 2.94992,0 5.04765,-0.4261 6.71927,-1.34385 v -4.6871 h -0.39332 c -1.5733,0.55721 -3.01548,0.81943 -5.30986,0.81943 -1.63885,0 -3.70379,-0.19667 -4.42488,-1.99939 h 10.68527 c 0.5572,-1.08164 0.68831,-2.22883 0.68831,-3.4088 z m -5.50652,-0.4261 H 167.327 c 0.52443,-1.57329 1.67162,-2.09772 3.08102,-2.09772 1.5733,0 2.75326,1.01608 2.78604,2.06494 z"
         id="path1"
         sodipodi:nodetypes="cccccccccsssscccsccsccscccccccsssscccsccsccscc" />
      <path
         style="stroke-width:3.76162"
         d="m 127.98232,166.5282 c -3.17936,-0.58998 -3.99878,-0.52443 -3.99878,-1.44218 0,-0.45888 0.29499,-0.75387 1.04886,-0.75387 2.39271,0 4.91653,0.8522 6.68649,1.83551 h 0.4261 v -4.94931 c -1.76996,-0.8522 -4.42489,-1.34386 -7.07981,-1.34386 -3.76935,0 -7.57147,1.63885 -7.57147,5.67041 0,3.08103 1.67162,4.62154 8.03034,5.70318 0.95053,0.16388 1.50774,0.22944 1.50774,0.95053 0,0.55721 -0.55721,0.72109 -1.44218,0.72109 -2.16328,0 -5.04765,-0.78665 -7.17815,-1.83551 h -0.42609 l -0.0328,5.08042 c 0.16388,0.0983 3.1138,1.57329 7.40758,1.57329 4.71987,0 8.16145,-1.86828 8.16145,-5.73595 0,-3.47435 -1.99939,-4.81821 -5.5393,-5.47375 z m 24.30278,0.62277 c 0,-3.67102 -2.85159,-7.27648 -8.39089,-7.27648 -5.37541,0 -9.24308,3.37602 -9.24308,9.04643 0,5.44096 3.90045,8.84976 9.66918,8.84976 2.94992,0 5.04764,-0.4261 6.71927,-1.34385 v -4.6871 h -0.39333 c -1.57329,0.55721 -3.01547,0.81942 -5.30985,0.81942 -1.63885,0 -3.70379,-0.19666 -4.42489,-1.99939 h 10.68527 c 0.55721,-1.08163 0.68832,-2.22883 0.68832,-3.40879 z m -5.50652,-0.4261 h -5.86707 c 0.52443,-1.5733 1.67163,-2.09773 3.08103,-2.09773 1.57329,0 2.75326,1.01609 2.78604,2.06495 z m 7.29153,10.52138 h 6.48983 v -7.70257 c 0,-2.91714 1.96661,-3.31047 3.70379,-3.31047 h 0.65554 v -6.35872 h -0.65554 c -1.73718,0.0656 -3.11381,0.68832 -4.12989,1.67163 h -0.32777 l -0.62276,-1.17997 h -5.1132 z m 15.84628,-18.68283 c 1.93384,0 3.53991,-1.60607 3.53991,-3.50713 0,-1.93384 -1.63884,-3.50713 -3.53991,-3.50713 -1.80272,0 -3.50712,1.47496 -3.50712,3.50713 0,1.96661 1.57329,3.50713 3.50712,3.50713 z m -3.37602,18.68283 h 6.71927 v -16.8801 h -6.71927 z m 26.17101,-10.09528 c 0,-3.67102 -2.85159,-7.27648 -8.39089,-7.27648 -5.37541,0 -9.24308,3.37602 -9.24308,9.04643 0,5.44096 3.90045,8.84976 9.66918,8.84976 2.94992,0 5.04765,-0.4261 6.71927,-1.34385 v -4.6871 h -0.39333 c -1.57329,0.55721 -3.01547,0.81942 -5.30985,0.81942 -1.63885,0 -3.70379,-0.19666 -4.42489,-1.99939 h 10.68527 c 0.55721,-1.08163 0.68832,-2.22883 0.68832,-3.40879 z m -5.50652,-0.4261 h -5.86707 c 0.52444,-1.5733 1.67163,-2.09773 3.08103,-2.09773 1.57329,0 2.75326,1.01609 2.78604,2.06495 z m 17.25572,-0.19667 c -3.17936,-0.58998 -3.99879,-0.52443 -3.99879,-1.44218 0,-0.45888 0.295,-0.75387 1.04886,-0.75387 2.39272,0 4.91654,0.8522 6.68649,1.83551 h 0.4261 v -4.94931 c -1.76995,-0.8522 -4.42488,-1.34386 -7.07981,-1.34386 -3.76934,0 -7.57146,1.63885 -7.57146,5.67041 0,3.08103 1.67162,4.62154 8.03034,5.70318 0.95053,0.16388 1.50774,0.22944 1.50774,0.95053 0,0.55721 -0.55721,0.72109 -1.44219,0.72109 -2.16327,0 -5.04764,-0.78665 -7.17814,-1.83551 h -0.4261 l -0.0328,5.08042 c 0.16389,0.0983 3.11381,1.57329 7.40758,1.57329 4.71988,0 8.16145,-1.86828 8.16145,-5.73595 0,-3.47435 -1.99939,-4.81821 -5.53929,-5.47375 z"
         id="path2" />
    </g>
    <g
       id="g3-4-2-2-0-4-6-6-5-0"
       style="fill:#7775c5;fill-opacity:1"
       transform="matrix(0.24798867,0,0,0.24798867,3.7937151,107.96439)">
	<g
   id="g2-6-5-7-7-2-4-6-1-8-0"
   style="fill:#7775c5;fill-opacity:1">
		<path
   class="st0"
   d="m 193.3,14.9 c 0,-6.8 -6.8,-11.6 -13.2,-9.2 L 81.9,41.5 c -3.6,1.3 -6,4.8 -6,8.6 v 34.8 c 0,6.4 6.2,11 12.3,9.1 l 36,-11.2 c 1.1,-0.3 2.2,0.5 2.2,1.6 v 38.1 l 0.2,219.8 c 0,5.8 4.7,10.4 10.4,10.4 l 46.1,-0.8 c 5.8,0 10.4,-4.7 10.4,-10.4 l -0.2,-219 z"
   id="path1-1-5-9-7-4-6-0-8-6-3"
   style="fill:#7775c5;fill-opacity:1" />

	</g>

</g>
    <path
       class="st0"
       d="m 102.43056,148.7274 c -0.42123,0.29758 -0.6418,0.74436 -0.61515,1.24001 0,0.49619 0.30084,0.91782 0.71815,1.14077 2.80188,1.58714 5.05884,3.62059 6.72071,6.02611 2.40542,3.52149 3.69341,6.37933 3.69341,11.14069 0,7.68754 -2.87681,13.96175 -8.50549,18.59912 -5.579777,4.58784 -13.01942,6.91893 -22.121254,6.91893 -8.530892,0 -15.622045,-2.30627 -21.078755,-6.84456 -4.835604,-4.01741 -6.730121,-9.2252 -7.325205,-15.49921 -0.10033,-0.94242 0.227311,-1.90946 0.868013,-2.60393 0.6418,-0.71914 1.56139,-1.1159 2.528479,-1.1159 l 12.364604,0.0266 c 1.636951,0 3.049883,1.19039 3.347581,2.85189 0.374514,2.00871 1.339409,3.67021 3.000501,5.08369 2.158041,1.81036 4.002236,2.73801 7.201517,2.75271 13.087452,0.0536 15.088256,-20.51468 -1.600268,-20.51468 h -1.21572 c -4.141444,0 -7.489025,-3.37261 -7.489025,-7.51401 0,-4.14146 3.372977,-7.48934 7.514421,-7.48934 h 1.290027 c 3.893284,0 5.960871,-0.94229 7.771047,-2.82708 3.472837,-3.81533 3.885289,-9.58418 0.09406,-13.13113 -1.80955,-1.6864 -3.530213,-2.52945 -6.754106,-2.55433 -2.926978,0 -4.547938,0.79378 -6.506572,2.38079 -1.438485,1.16544 -2.307126,2.55419 -2.653578,4.24063 -0.347707,1.63662 -1.736027,2.77739 -3.372978,2.77739 l -11.804949,-0.0267 c -0.991702,0 -1.933238,-0.42128 -2.603256,-1.16557 -0.642114,-0.74436 -0.966933,-1.71113 -0.839325,-2.6783 0.421387,-3.42231 1.611554,-6.62133 3.546203,-9.47317 2.454956,-3.59583 5.068245,-6.44767 9.457849,-8.45642 4.26576,-1.98385 9.101991,-3.07332 14.308503,-3.00076 29.360856,0.40926 32.237046,24.16268 25.568686,34.33433 -1.53881,2.08306 -3.37313,3.89342 -5.48101,5.38132 z"
       id="path2-4-1-5-9-8-0-3-9-2-9"
       style="fill:#7775c5;fill-opacity:1;stroke-width:0.247987"
       sodipodi:nodetypes="scccscscccccccsssssscscccccccccscss" />
    <g
       id="g21-2-7-2-4-3-6-6-8-8-6-1"
       style="fill:#7775c5;fill-opacity:1;stroke:#f65632;stroke-width:25.4578"
       transform="matrix(0.18037867,0,0,0.18037867,20.446026,127.9996)">
	<g
   id="g20-3-1-3-3-1-5-6-0-4-5-8"
   style="fill:#7775c5;fill-opacity:1">
		<g
   id="g19-2-1-2-1-9-0-1-1-1-3-1"
   style="fill:#7775c5;fill-opacity:1">
			<g
   id="g18-2-5-2-2-8-9-8-2-4-9-9"
   style="fill:#7775c5;fill-opacity:1">
				<g
   id="g17-1-2-1-3-6-0-4-5-3-2-5"
   style="fill:#7775c5;fill-opacity:1">
					<g
   id="path17-6-7-6-3-5-0-9-0-9-4-3"
   class="st1"
   style="fill:#7775c5;fill-opacity:1">
  <path
     id="path6-4-0-6-6-94-8-6-2"
     style="fill:#7775c5;fill-opacity:1;stroke:none"
     d="m 262.28641,304.35784 c -96.36782,0.10231 -186.372543,24.87863 -260.5686973,76.6506 l -0.00903,0.005 -0.00903,0.005 c -9.3782868,6.5648 -11.5408876,19.33117 -7.4962693,28.04896 4.0446183,8.7178 15.1804875,15.31203 26.2482246,12.38847 l 0.0045,-0.005 h 0.009 c 76.833733,-20.3846 157.814702,-26.13535 241.947612,-26.23468 84.1235,-0.0993 165.22221,5.55099 241.96567,25.64346 11.05901,2.89395 22.23911,-3.67557 26.27079,-12.42458 4.03167,-8.74902 1.80972,-21.46526 -7.55042,-28.01736 l -0.0226,-0.0135 -0.0181,-0.0135 C 448.75654,328.82333 358.65292,304.25555 262.28641,304.35784 Z" />
</g>

				</g>

			</g>

		</g>

	</g>

</g>
  </g>
</svg>
