<?xml version="1.0" encoding="utf-8"?>
<!-- Generator: Adobe Illustrator 16.0.3, SVG Export Plug-In . SVG Version: 6.00 Build 0)  -->
<!DOCTYPE svg PUBLIC "-//W3C//DTD SVG 1.1//EN" "http://www.w3.org/Graphics/SVG/1.1/DTD/svg11.dtd">
<svg version="1.1" id="_x39_cec9e3f-7b13-4aac-8df9-d56574d1d927"
	 xmlns="http://www.w3.org/2000/svg" xmlns:xlink="http://www.w3.org/1999/xlink" x="0px" y="0px" width="3816.148px"
	 height="1516.755px" viewBox="86.741 86.425 3816.148 1516.755" enable-background="new 86.741 86.425 3816.148 1516.755"
	 xml:space="preserve">
<g>
	<path fill="#0E4197" d="M2893.116,98.881c-10.572-2.01-21.436-3.062-32.48-3.062H1706.5c-86.375,0-156.521,70.146-156.521,156.629
		v0.546c0,86.443,70.077,156.521,156.521,156.521h372.838v1029.745c0,86.442,70.077,156.521,156.521,156.521
		c0.036,0,0.073,0,0.109,0c86.101,0,155.916-69.767,155.976-155.866v-1030.4h369.68"/>
</g>
<title>TVN2020</title>
<path fill="#FB1519" d="M547.548,339.886c27.166-37.498,48.603-73.446,76.087-103.938
	C741.338,105.385,895.586,76.767,1060.86,88.993c54.137,4,109.653,16.155,160.323,35.586
	c187.366,71.839,269.025,224.131,298.99,411.409c6.958,43.506,8.525,88.193,8.895,132.366c1.45,173.226,2.084,346.467,1.595,519.702
	c-0.166,59.479,14.203,108.62,63.688,148.348c52.222,41.925,64.526,101.857,44.679,164.519
	c-19.93,62.936-78.197,99.798-149.927,102.096c-132.507,4.244-244.423-75.729-278.851-203.778
	c-11.725-43.595-19.019-89.704-19.521-134.761c-2.024-181.271-0.642-362.585-0.431-543.87
	c0.095-78.698-8.198-155.419-48.808-225.392c-33.665-58.007-83.806-93.215-148.305-108.591
	c-181.597-43.294-340.868,54.872-383.315,239.576c-11.928,51.893-17.867,106.236-18.217,159.514
	c-1.405,212.156,0.47,424.338,1.161,636.501c0.307,94.185-75.131,172.417-169.18,175.352
	c-89.681,2.806-165.668-68.625-170.581-163.077c-2.437-46.865-0.354-93.97-0.284-140.972c0.374-253.813,0.768-507.623,1.114-761.436
	c0.024-16.116-0.366-32.232-0.457-48.341c-0.299-54.486-21.465-95.379-73.118-119.101c-42.407-19.476-78.37-45.039-89.873-95.818
	C73.216,192.765,117.615,116.234,193.71,99.842c72.501-15.62,145.754-13.115,213.685,16.329
	C480.62,147.906,548.476,206.984,547.548,339.886z"/>
<path fill="#FEC300" d="M2719.854,290.655l41.052,116.111h0.718l381.879,1079.849c27.236,77.144,95.363,115.78,163.576,115.918
	c68.213-0.138,136.34-38.774,163.576-115.918l381.879-1079.849h0.717l41.052-116.111c34.09-96.395-37.58-197.583-139.858-197.583
	h-0.922c-73.65,0-139.297,46.442-163.818,115.893l-282.543,799.813l-0.082-0.233l-0.083,0.233l-282.543-799.813
	c-24.521-69.45-90.168-115.893-163.817-115.893h-0.922C2757.434,93.072,2685.764,194.26,2719.854,290.655z"/>
</svg>
