<?xml version="1.0" encoding="utf-8"?>
<!-- Generator: Adobe Illustrator 27.9.0, SVG Export Plug-In . SVG Version: 6.00 Build 0)  -->
<svg version="1.1" id="Слой_1" xmlns="http://www.w3.org/2000/svg" xmlns:xlink="http://www.w3.org/1999/xlink" x="0px" y="0px"
	 width="500px" height="366.9px" viewBox="0 0 500 366.9" style="enable-background:new 0 0 500 366.9;" xml:space="preserve">
<style type="text/css">
	.st0{fill-rule:evenodd;clip-rule:evenodd;}
</style>
<g>
	<path class="st0" d="M50.7,232.5c-4.5-15.3-6.8-31.4-6.8-47.6c0-72.1,46.8-144,160.6-144c6.7,0,13.4,0.2,20.4,0.7l0.5-1.3
		c-5.9-4.1-9.2-6.5-14-9.8l-0.1-0.2h0c-5.4-0.4-10.4-0.4-15.5-0.4c-45.1,0-87.2,8.2-129.9,41.3l-1.2-7.1
		c-0.1-16.3,16.6-31.4,16.6-31.4l1.3-1.2L81,31.4h-0.7c-4.8-0.1-51.2,2.5-57.7,83.7c-8.6-3.5-9.1-26-9.1-26v-2.3l-1,1.9
		C5.5,100.6,0,123.1,0,150.2c0,52.6,20.9,122.3,92.9,163.5l0.2,0.2l2.4-2.3l0.5-0.5l-0.4-0.4C74.8,285.3,56.4,251.7,50.7,232.5z
		 M150.6,46.4c-1.4,0.4-2.8,0.7-4.1,1.1C147.9,47.2,149.2,46.8,150.6,46.4z M95.1,72.8c-0.7,0.6-1.4,1.1-2.1,1.7
		C93.8,73.9,94.4,73.3,95.1,72.8z M69.5,99.4C69.5,99.4,69.5,99.4,69.5,99.4C69.5,99.4,69.5,99.4,69.5,99.4z M64.9,57.7
		C64.9,57.7,64.9,57.7,64.9,57.7C64.9,57.7,64.9,57.7,64.9,57.7z"/>
	<polygon class="st0" points="205.9,8.9 234.7,35.7 224.5,67.6 225.5,68.2 249.4,34.1 227,15.2 258.9,15.2 269.8,35.2 269.9,35.3 
		277.1,38.1 269.5,41.7 268.9,42 276.3,62.4 276.7,63 301.5,53 349.6,61.2 352.7,67.1 346.8,68.2 345.8,68.5 352,78 352.1,78 
		378.8,94.9 409.7,134.9 420.5,133.6 423.8,153.3 423.8,153.6 437.1,168.2 437.4,168.3 449.2,172.8 444.9,196.9 429.8,201.1 
		392.7,195 381.8,173.3 381.7,173.1 355,166.4 358.4,141.6 358.6,141.5 352.3,120.2 351,120.6 351.3,143 345.8,163.1 323.4,169.4 
		282.2,151.9 256,126.1 242.2,96 241.1,96.5 250.3,130.1 250.3,130.2 275.6,162 304,177.9 304,177.9 342,180.9 372.8,184 
		383.8,201.7 383.9,201.8 415.3,216.3 415.5,216.4 450.2,209.5 450.4,209.5 463.5,198.3 463.9,198.1 461.6,162.8 456.7,142.3 
		456.6,141.9 428.7,126.1 396.2,97.4 365.8,70.6 361.9,55.6 361.9,55.3 336.8,39 301.3,21.6 284.5,20.2 268.4,8.8 268.3,8.6 
		236.5,2.3 204.6,0 203.9,0 205.9,8.8 	"/>
	<path class="st0" d="M458.4,217.9H156.9c-23,0-41.7,23.4-41.7,52.3v44.3c0,28.8,18.7,52.4,41.7,52.4h301.6
		c23,0,41.6-23.5,41.6-52.4v-44.3C500,241.3,481.4,217.9,458.4,217.9z M490.8,311.3c0,28.9-14.5,47.1-37.5,47.1H161.9
		c-23,0-37.5-18.2-37.5-47.1v-38c0-28.9,14.5-47,37.5-47h291.4c23,0,37.5,18.2,37.5,47V311.3z"/>
	<polygon class="st0" points="144.9,249.5 154.1,249.5 154.1,346 163.4,346 163.4,249.5 172.6,249.5 172.6,238.7 144.9,238.7 	"/>
	<polygon class="st0" points="176.5,346.1 200,346.1 200,335.3 185.8,335.3 185.8,296.7 193.9,296.7 193.9,286.1 185.8,286.1 
		185.8,249.4 200,249.4 200,238.7 176.5,238.7 	"/>
	<polygon class="st0" points="215.3,238.7 206,238.7 206,346.1 229.5,346.1 229.5,335.3 215.3,335.3 	"/>
	<polygon class="st0" points="234.4,346.1 257.9,346.1 257.9,335.3 243.7,335.3 243.7,296.7 251.7,296.7 251.7,286.1 243.7,286.1 
		243.7,249.4 257.9,249.4 257.9,238.7 234.4,238.7 	"/>
	<polygon class="st0" points="260.6,249.5 269.9,249.5 269.9,346 279.1,346 279.1,249.5 288.4,249.5 288.4,238.7 260.6,238.7 	"/>
	<path class="st0" d="M306.5,238.7h-14.2v107.4h9.2v-49.4h5l5.8,49.4h9.4l-6.9-51.9c4.8-4,7.2-11.2,7.2-21.2v-11.9
		C322,246.2,316.9,238.7,306.5,238.7z M312.6,278.7c0,5-2,7.4-6.1,7.4h-5v-36.6h5c4.1,0,6.1,2.5,6.1,7.2V278.7z"/>
	<path class="st0" d="M336.2,238.7l-12.3,107.4h9.4l1.6-16.1h11.7l1.7,16.1h9.3l-12.2-107.4H336.2z M336.2,318.3l3.2-30.2l1.3-18.9
		l1.6,19.1l3,30.1H336.2z"/>
	<polygon class="st0" points="394.1,238.7 384.3,238.7 373.1,278.2 370.8,287.7 370.8,238.7 361.6,238.7 361.6,346.1 370.8,346.1 
		370.8,294.2 373.1,303.6 385.1,346.1 395,346.1 378.6,290.9 	"/>
	<polygon class="st0" points="408.7,249.5 417.2,249.5 417.2,346 425.2,346 425.2,249.5 433.7,249.5 433.7,238.7 408.7,238.7 	"/>
	<polygon class="st0" points="452.8,296.7 451.5,315.5 450.2,296.4 444.6,238.7 436.3,238.7 447.3,346 455.7,346 466.7,238.7 
		458.3,238.7 	"/>
</g>
</svg>
